<svg width="30" height="30" viewBox="0 0 30 30" fill="none" xmlns="http://www.w3.org/2000/svg">
<g id="clarity:eye-hide-solid" clip-path="url(#clip0_5_219)">
<path id="Vector" d="M15.309 9.30833C14.6346 9.30912 13.9657 9.43048 13.334 9.66667L20.6673 17C20.9066 16.3605 21.028 15.6828 21.0257 15C21.019 13.4882 20.4138 12.0405 19.3425 10.9739C18.2711 9.90718 16.8208 9.30832 15.309 9.30833Z" fill="white"/>
<path id="Vector_2" d="M28.5754 14.6083C25.7671 9.41667 20.8421 6.275 15.3921 6.275C13.9082 6.27849 12.4343 6.51757 11.0254 6.98333L12.3671 8.33333C13.3553 8.07794 14.3714 7.94638 15.3921 7.94167C20.0837 7.94167 24.3504 10.5583 26.8921 14.9667C25.9597 16.6022 24.7237 18.0447 23.2504 19.2167L24.4337 20.4C26.1388 19.0245 27.5549 17.3252 28.6004 15.4L28.8171 15L28.5754 14.6083Z" fill="white"/>
<path id="Vector_3" d="M4.05742 4.81667L7.77409 8.53333C5.42485 10.0459 3.50484 12.1381 2.19909 14.6083L1.98242 15L2.19909 15.4C5.00742 20.5917 9.93242 23.7333 15.3824 23.7333C17.5096 23.7329 19.6092 23.2515 21.5241 22.325L25.6908 26.4917L27.1491 25.2417L5.48242 3.575L4.05742 4.81667ZM10.9741 11.7333C10.1945 12.8328 9.82903 14.1727 9.94252 15.5158C10.056 16.8589 10.6411 18.1185 11.5942 19.0716C12.5473 20.0247 13.8069 20.6097 15.1499 20.7232C16.493 20.8367 17.8329 20.4713 18.9324 19.6917L20.2658 21.025C18.7222 21.6848 17.061 22.025 15.3824 22.025C10.6908 22.025 6.42409 19.4083 3.88242 15C5.10218 12.8402 6.85886 11.0318 8.98242 9.75L10.9741 11.7333Z" fill="white"/>
</g>
<defs>
<clipPath id="clip0_5_219">
<rect width="30" height="30" fill="white"/>
</clipPath>
</defs>
</svg>
