<svg width="60" height="60" viewBox="0 0 60 60" fill="none" xmlns="http://www.w3.org/2000/svg">
<g id="Group 1000002091">
<g id="Rectangle 6">
<rect width="60" height="60" rx="6" fill="#072564"/>
<rect x="0.5" y="0.5" width="59" height="59" rx="5.5" stroke="#3D3D3D" stroke-opacity="0.3"/>
</g>
<path id="Vector" d="M30 30C28.9 30 27.9583 29.6083 27.175 28.825C26.3917 28.0417 26 27.1 26 26C26 24.9 26.3917 23.9583 27.175 23.175C27.9583 22.3917 28.9 22 30 22C31.1 22 32.0417 22.3917 32.825 23.175C33.6083 23.9583 34 24.9 34 26C34 27.1 33.6083 28.0417 32.825 28.825C32.0417 29.6083 31.1 30 30 30ZM22 38V35.2C22 34.6333 22.146 34.1123 22.438 33.637C22.73 33.1617 23.1173 32.7993 23.6 32.55C24.6333 32.0333 25.6833 31.6457 26.75 31.387C27.8167 31.1283 28.9 30.9993 30 31C31.1 31 32.1833 31.1293 33.25 31.388C34.3167 31.6467 35.3667 32.034 36.4 32.55C36.8833 32.8 37.271 33.1627 37.563 33.638C37.855 34.1133 38.0007 34.634 38 35.2V38H22Z" fill="white"/>
</g>
</svg>
